<svg width="22" height="18" viewBox="0 0 22 18" fill="none" xmlns="http://www.w3.org/2000/svg">
<path d="M19.3999 16.831L4.3999 1.83099M9.1999 7.77257C8.82648 8.18425 8.5999 8.72503 8.5999 9.3173C8.5999 10.6071 9.67442 11.6527 10.9999 11.6527C11.611 11.6527 12.1688 11.4304 12.5926 11.0644M19.4387 11.6527C20.2649 10.4158 20.5999 9.40712 20.5999 9.40712C20.5999 9.40712 18.4153 2.43099 10.9999 2.43099C10.5836 2.43099 10.1838 2.45298 9.7999 2.49449M16.3999 14.6804C15.0225 15.5591 13.2492 16.1805 10.9999 16.1437C3.67683 16.024 1.3999 9.40712 1.3999 9.40712C1.3999 9.40712 2.45776 6.02907 5.5999 3.97431" stroke="#808080" stroke-width="2" stroke-linecap="round"/>
</svg>
